<?xml version="1.0" encoding="UTF-8"?><svg id="b" xmlns="http://www.w3.org/2000/svg" viewBox="0 0 794.66 73.95"><g id="c"><g id="d"><path d="m24.99,32.91c1.38,1.33,2.15,4.15,2.98,8.54h.24v-11.12H0v.66h1.1c1.39,0,2.45.27,3.09.94.69.65.96,1.68.96,3.01v25.26c0,1.33-.28,2.35-.96,3-.71.67-1.78.94-3.14.94H0v.66h12v-.66h-1.1c-1.39,0-2.45-.25-3.14-.89-.69-.66-.96-1.7-.97-3.06v-13.08h6.79c2.11,0,3.59.42,4.33,1.48.66.97.92,2.71.95,5.38h.56v-14.48s-.56,0-.56,0c-.04,2.64-.32,4.41-1,5.42-.74,1.1-2.21,1.54-4.29,1.54h-6.79v-11.53c0-1.33.28-2.35.96-3,.68-.68,1.74-.95,3.1-.95h5.31c4.3.01,7.37.57,8.83,1.93" style="fill:#787e85;"/><path d="m160.36,49.24c3.78-.07,6.27-.1,7.48-.1,4.68,0,8.13-.83,10.38-2.41,2.24-1.58,3.35-3.88,3.36-7.1,0-3.15-1.11-5.39-3.34-6.94-2.24-1.55-5.68-2.36-10.34-2.36h-14.92v.66h1.26c1.37,0,2.43.3,3.11,1.02.67.72.94,1.81.94,3.24v24.95c0,1.46-.22,2.49-.85,3.1-.65.63-1.71.84-3.2.85h-1.26v.66h12.31v-.66h-1.26c-1.49,0-2.55-.22-3.18-.83-.69-.62-.92-1.67-.93-3.12v-10.95h.44Zm-.44-13.99c0-1.34.33-2.43,1.07-3.17.74-.75,1.82-1.09,3.14-1.09h4.43c3.13,0,5.52.44,7.18,1.4,2.39,1.35,3.59,3.83,3.58,7.19.01,3.15-1.35,5.62-3.98,7.19-2.08,1.26-4.71,1.87-7.86,1.87-1.46,0-3.83-.09-7.14-.26l-.42-.02v-13.1Z" style="fill:#231f20;"/><path d="m227.73,59.43c.94,1.35,1.44,2.18,1.47,2.89.01.61-.35,1.17-.91,1.44-.56.28-1.29.39-2.21.4h-1.67v.66h12.88v-.67c-1.64-.07-3.08-.52-4.29-1.35-1.1-.74-2.23-1.94-3.42-3.62l-9.31-13.15,6.99-9.74c1.36-1.91,2.48-3.21,3.45-3.92,1.16-.86,2.63-1.3,4.36-1.37v-.67h-11.43v.67c1.1.04,1.96.2,2.62.53.75.36,1.21,1.06,1.19,1.86,0,.98-.47,2.04-1.32,3.25l-6.29,8.81-6.96-9.79c-.52-.71-.91-1.3-1.19-1.77-.27-.48-.43-.8-.45-1.18-.01-.57.31-1.1.83-1.36.51-.27,1.16-.37,1.99-.38h1.31v-.66h-11.23v.67c1.43.05,2.59.35,3.47.95.77.54,1.7,1.61,2.89,3.25l8.33,11.7-8.59,11.96c-2.36,3.29-4.97,5.1-7.81,5.28v.67h11.74v-.66c-1.46-.02-2.58-.15-3.4-.4-.88-.26-1.55-.78-1.55-1.58.02-.39.19-.74.47-1.26.29-.51.71-1.15,1.27-1.94l8.25-11.49,8.51,11.95Z" style="fill:#231f20;"/><path d="m55.85,61.32c1.75,1.66,3.48,2.79,5.17,3.41,1.45.56,3.18.85,5.2.85,3.19,0,5.8-.85,7.92-2.54,2.13-1.68,3.17-3.9,3.18-6.82-.01-3.36-1.25-5.8-3.77-7.52-1.22-.81-4.02-1.93-8.29-3.3-3.66-1.17-5.84-1.94-6.67-2.35-2.53-1.34-3.91-3.27-3.9-5.65,0-2.32.96-4.22,2.82-5.52,1.6-1.09,3.55-1.62,5.82-1.62,3.35,0,6.07,1.02,8.05,3.07,1.64,1.68,2.9,4.16,3.83,7.45h.49v-10.87h-.85l-1.85,4.1-.45-.47c-2.58-2.63-5.67-3.93-9.37-3.94-2.95,0-5.3.8-7.13,2.36-1.8,1.61-2.68,3.61-2.69,6.11,0,2.65,1.14,4.73,3.52,6.39,1.41.95,3.93,2.01,7.52,3.14,3.9,1.28,6.31,2.18,7.35,2.77,2.65,1.53,4.05,3.82,4.04,6.68,0,2.37-1.09,4.38-3.18,5.88-1.86,1.33-4.01,1.99-6.39,1.99-6.83.03-11.32-4.05-13.18-11.83h-.51s0,12.02,0,12.02h.64l2.26-4.2.42.4Z" style="fill:#787e85;"/><path d="m106.93,61.32c1.76,1.66,3.48,2.79,5.17,3.41,1.45.56,3.18.85,5.2.85,3.19,0,5.81-.85,7.92-2.54,2.13-1.68,3.17-3.9,3.18-6.82-.01-3.36-1.25-5.8-3.77-7.52-1.22-.81-4.02-1.93-8.29-3.3-3.66-1.17-5.84-1.94-6.67-2.35-2.53-1.34-3.91-3.27-3.9-5.65-.01-2.32.96-4.22,2.82-5.52,1.6-1.09,3.55-1.62,5.82-1.62,3.35,0,6.07,1.02,8.05,3.07,1.64,1.68,2.9,4.16,3.83,7.45h.49v-10.87h-.85l-1.85,4.1-.45-.47c-2.58-2.63-5.67-3.93-9.37-3.94-2.95,0-5.3.8-7.13,2.36-1.8,1.61-2.68,3.61-2.69,6.11,0,2.65,1.14,4.73,3.52,6.39,1.41.95,3.93,2.01,7.52,3.14,3.9,1.28,6.31,2.18,7.35,2.77,2.65,1.53,4.05,3.82,4.04,6.68,0,2.37-1.09,4.38-3.18,5.88-1.86,1.33-4.01,1.99-6.39,1.99-6.83.03-11.32-4.05-13.18-11.83h-.51s0,12.02,0,12.02h.64l2.26-4.2.42.4Z" style="fill:#231f20;"/><path d="m311.38,28.08c-2.24-1.25-4.21-1.71-5.94-1.71-.62,0-1.2.06-1.75.17-.56.12-1.08.26-1.55.42-.55.2-1.06.44-1.54.7h0c-2.48,1.37-3.15,3.31-3.25,3.56,0,.02,0,.02,0,.02l-.22.79-.78-.27c-.66-.23-1.27-.32-1.85-.32-1.1-.01-2.1.34-2.92.79,1.9,1.37,3.3,3.03,4.03,4,.53-.66,1.38-1.65,2.48-2.66,1.88-1.71,4.49-3.5,7.5-3.52,1.52,0,3.11.49,4.61,1.65,2.88,2.2,3.83,5.62,3.82,9.02-.02,5.4-2.29,10.96-3.62,13.14-.15.26-4.86,8.74-14.29,15.78l-.21.15h-.59l-.21-.15c-9.49-7.07-14.25-15.62-14.33-15.78-1.33-2.18-3.6-7.73-3.62-13.13,0-3.39.94-6.81,3.82-9.02,1.25-.96,2.56-1.47,3.83-1.61.53-.54,1.98-1.98,3.85-3.23-.91-.29-1.91-.47-3-.47-1.73,0-3.68.45-5.87,1.68-5.24,2.92-6.29,8.77-6.29,12.95,0,1.28.1,2.38.2,3.16.1.78.19,1.21.19,1.21v.02s0,.04,0,.04c0,0,.03.22.12.67.09.45.26,1.12.51,1.96.51,1.69,1.4,4.08,2.91,6.88,2.98,5.52,8.39,12.62,18.14,18.98,17.14-11.18,20.88-24.68,21.55-27.82.1-.45.12-.67.12-.67v-.03s.01-.02.01-.02c0,0,.09-.44.19-1.22.1-.78.2-1.88.2-3.16,0-4.18-1.05-10.03-6.29-12.95m-18.95-1.38h.24s.04-.09.04-.09c-.09.03-.19.06-.28.09" style="fill:#231f20;"/><path d="m304.72,31.69c-1.24.18-2.46.73-3.56,1.46,1.69,2.1,2.29,4.82,2.29,7.51-.01,5.42-2.3,11-3.63,13.16-.26.46-3.04,5.34-8.4,10.67.81.76,1.68,1.53,2.59,2.28,9.56-9.2,12.04-18.21,12.57-20.71.09-.45.12-.67.12-.67v-.03s.01-.02.01-.02c0,0,.09-.44.19-1.22.1-.78.2-1.88.2-3.16,0-2.8-.48-6.36-2.37-9.28m-19.18,37.88l-.21.15h-.59l-.2-.15c-9.35-6.97-14.11-15.37-14.33-15.77-1.33-2.17-3.6-7.74-3.62-13.15,0-3.39.94-6.81,3.82-9.02,1.5-1.16,3.1-1.65,4.61-1.65.07,0,.14,0,.21,0,.89-1.14,2.01-2.18,3.41-3.04-1.04-.39-2.22-.64-3.5-.64-1.74,0-3.71.45-5.91,1.69-5.24,2.92-6.29,8.77-6.29,12.95,0,1.28.1,2.38.2,3.16s.19,1.21.19,1.22v.02s0,.03,0,.03c0,0,.03.22.13.67.1.45.26,1.12.51,1.96.51,1.69,1.4,4.08,2.91,6.88,2.98,5.53,8.39,12.62,18.14,18.98,1.42-.93,2.75-1.87,3.99-2.83-.89-.73-1.74-1.47-2.54-2.2-.31.24-.62.48-.94.72m-3.64-36.6c.22.18.42.36.62.54,1.11,1.01,1.97,2.02,2.5,2.68.53-.66,1.39-1.66,2.5-2.68.26-.24.54-.48.83-.71.75-.8,2.96-2.88,6.16-2.91.52,0,1.07.06,1.64.19h0c.37-.75,1.14-1.96,2.56-3.04-1.37-.5-2.63-.72-3.78-.72-.59,0-1.16.05-1.7.15h0c-2.62.51-5.58,3.02-6.83,4.24-.08.09-.16.16-.24.23-.04.06-.09.12-.12.16-.1.13-.14.2-.14.2l-.23.35h-.68c-.99.11-2,.48-3.05,1.28-.01,0-.02.02-.04.03" style="fill:#231f20;"/><path d="m306.22,12.59l-1.5,3.97-4.48-1.17.87-4.34-3.58-.8-.78,4.18-5.18-.28v-7.84h3.49v-2.68h-3.56V0h-2.68v3.63h-3.9v2.88h3.97v7.61l-5.44.45-.86-4.24-3.45.6.86,4.43-4.57,1.27-1.31-3.98-3.45,1.56,3.97,10.55v.02c.17,0,.33-.01.49-.01,1.35,0,2.57.24,3.67.61-.51-1.32-1.19-3.09-1.98-5.1l-.29-.75.75-.27c4.47-1.61,8.92-2.13,12.84-2.13,7.49,0,13.04,1.91,13.09,1.93l.78.27-2.56,6.23c1.18-.45,2.51-.75,4-.75.06,0,.12,0,.18,0l3.91-10.67-3.3-1.56Z" style="fill:#231f20;"/><path d="m340.93,37.84h12.21v1.33h-10.76v8.06h8.04v1.33h-8.04v10.73h-1.45v-21.46Z" style="fill:#13232a;"/><path d="m355.79,44.08h1.39v3.19h.06c1.28-2,3.22-3.51,6.27-3.51h.41l-.23,1.31h-.49c-2.58,0-4.76,1.51-6,4.21v10.04h-1.39v-15.23Z" style="fill:#13232a;"/><path d="m366.3,55.8c0-2.9,2.47-5.08,10.47-6.41v-.93c0-2.32-1.22-3.48-3.31-3.48-2.52,0-4.21.99-5.92,2.52l-.81-.87c1.88-1.74,3.83-2.87,6.76-2.87,3.16,0,4.67,1.8,4.67,4.61v7.17c0,1.86.12,2.99.43,3.77h-1.48c-.2-.64-.35-1.39-.35-2.26-1.86,1.6-3.89,2.52-6.18,2.52-2.78,0-4.29-1.45-4.29-3.77Zm10.47-.12v-5.25c-7.43,1.3-9.08,3.13-9.08,5.28,0,1.71,1.13,2.64,3.02,2.64,2.26,0,4.32-.99,6.06-2.67Z" style="fill:#13232a;"/><path d="m384.17,55.91v-10.59h-2.67v-1.25h2.67v-5.54h1.39v5.54h3.97v1.25h-3.97v10.38c0,1.62.55,2.55,2.47,2.55.58,0,1.16-.06,1.6-.2v1.3c-.49.09-1.07.15-1.71.15-2.52,0-3.74-1.02-3.74-3.6Z" style="fill:#13232a;"/><path d="m392.16,51.68c0-5.28,3.22-7.92,6.47-7.92,3.6,0,6.03,3.02,6.03,7.8v.2h-11.11c0,4.15,2.29,6.64,5.11,6.64,2.38,0,3.74-1.13,4.9-3.16l1.01.64c-1.25,2.29-3.04,3.74-6,3.74-3.42,0-6.41-2.93-6.41-7.95Zm11.05-1.07c-.2-3.13-1.68-5.63-4.61-5.63-2.38,0-4.64,1.86-5.02,5.63h9.63Z" style="fill:#13232a;"/><path d="m409.13,44.08h1.39v3.19h.06c1.28-2,3.22-3.51,6.27-3.51h.41l-.23,1.31h-.49c-2.58,0-4.76,1.51-6,4.21v10.04h-1.39v-15.23Z" style="fill:#13232a;"/><path d="m420.94,44.08h1.39v2.52c1.68-1.6,3.65-2.84,5.89-2.84,3.16,0,4.61,1.74,4.61,4.5v11.05h-1.39v-10.88c0-2.32-1.02-3.45-3.34-3.45-2.12,0-3.89,1.1-5.77,2.9v11.43h-1.39v-15.23Z" style="fill:#13232a;"/><path d="m438.04,38.42h1.51v1.77h-1.51v-1.77Zm.06,5.66h1.39v15.23h-1.39v-15.23Z" style="fill:#13232a;"/><path d="m444.05,51.71c0-5.34,2.9-7.95,6.44-7.95,2.09,0,3.92,1.19,5.13,2.55v-8.47h1.39v17.69c0,1.86.12,2.99.46,3.77h-1.51c-.17-.55-.35-1.48-.35-2.29-1.3,1.36-2.9,2.55-5.19,2.55-3.51,0-6.38-2.52-6.38-7.86Zm11.57,3.92v-7.92c-1.71-1.74-3.25-2.73-5.22-2.73-2.67,0-4.96,2.03-4.96,6.7s2.35,6.67,5.02,6.67c2.06,0,3.45-.99,5.16-2.73Z" style="fill:#13232a;"/><path d="m461.3,55.8c0-2.9,2.47-5.08,10.47-6.41v-.93c0-2.32-1.22-3.48-3.31-3.48-2.52,0-4.21.99-5.92,2.52l-.81-.87c1.89-1.74,3.83-2.87,6.76-2.87,3.16,0,4.67,1.8,4.67,4.61v7.17c0,1.86.12,2.99.43,3.77h-1.48c-.2-.64-.35-1.39-.35-2.26-1.86,1.6-3.89,2.52-6.18,2.52-2.78,0-4.29-1.45-4.29-3.77Zm10.47-.12v-5.25c-7.43,1.3-9.08,3.13-9.08,5.28,0,1.71,1.13,2.64,3.02,2.64,2.26,0,4.32-.99,6.06-2.67Z" style="fill:#13232a;"/><path d="m477.51,51.71c0-5.34,2.9-7.95,6.44-7.95,2.09,0,3.92,1.19,5.13,2.55v-8.47h1.39v17.69c0,1.86.12,2.99.46,3.77h-1.51c-.17-.55-.35-1.48-.35-2.29-1.3,1.36-2.9,2.55-5.19,2.55-3.51,0-6.38-2.52-6.38-7.86Zm11.57,3.92v-7.92c-1.71-1.74-3.25-2.73-5.22-2.73-2.67,0-4.96,2.03-4.96,6.7s2.35,6.67,5.02,6.67c2.06,0,3.45-.99,5.16-2.73Z" style="fill:#13232a;"/><path d="m502.5,53.94l1.42-.35c.84,3.19,3.1,4.82,6.24,4.82,3.48,0,5.69-1.71,5.69-4.29,0-2.38-.99-3.63-5.95-5.22-4.79-1.54-6.76-2.84-6.76-6.15,0-2.87,2.67-5.31,6.44-5.31s6.21,2.06,7.11,5.05l-1.39.41c-1.01-3.02-2.93-4.15-5.74-4.15-3.07,0-4.96,1.8-4.96,3.92,0,2.58,1.39,3.45,6.29,5.05,4.61,1.51,6.41,3.05,6.41,6.32,0,3.57-3.22,5.69-7.19,5.69s-6.7-2.21-7.6-5.77Z" style="fill:#13232a;"/><path d="m521.25,55.8c0-2.9,2.47-5.08,10.47-6.41v-.93c0-2.32-1.22-3.48-3.31-3.48-2.52,0-4.21.99-5.92,2.52l-.81-.87c1.89-1.74,3.83-2.87,6.76-2.87,3.16,0,4.67,1.8,4.67,4.61v7.17c0,1.86.12,2.99.43,3.77h-1.48c-.2-.64-.35-1.39-.35-2.26-1.86,1.6-3.89,2.52-6.18,2.52-2.78,0-4.29-1.45-4.29-3.77Zm10.47-.12v-5.25c-7.43,1.3-9.08,3.13-9.08,5.28,0,1.71,1.13,2.64,3.02,2.64,2.26,0,4.32-.99,6.06-2.67Z" style="fill:#13232a;"/><path d="m537.44,51.71c0-5.34,3.16-7.95,6.58-7.95,3.07,0,4.7,1.89,5.66,4.06l-1.19.64c-.93-2.18-2.18-3.48-4.53-3.48s-5.13,1.74-5.13,6.7c0,4.26,2.29,6.73,5.08,6.73,2.32,0,3.54-1.19,4.7-3.51l1.1.55c-1.28,2.64-2.99,4.18-5.89,4.18-3.48,0-6.38-3.08-6.38-7.92Z" style="fill:#13232a;"/><path d="m553.1,51.68c0-5.28,3.22-7.92,6.47-7.92,3.6,0,6.03,3.02,6.03,7.8v.2h-11.11c0,4.15,2.29,6.64,5.1,6.64,2.38,0,3.74-1.13,4.9-3.16l1.02.64c-1.25,2.29-3.05,3.74-6,3.74-3.42,0-6.41-2.93-6.41-7.95Zm11.05-1.07c-.2-3.13-1.68-5.63-4.61-5.63-2.38,0-4.64,1.86-5.02,5.63h9.63Z" style="fill:#13232a;"/><path d="m570.07,44.08h1.39v3.19h.06c1.28-2,3.22-3.51,6.27-3.51h.41l-.23,1.31h-.49c-2.58,0-4.76,1.51-6,4.21v10.04h-1.39v-15.23Z" style="fill:#13232a;"/><path d="m580.28,51.71c0-5.34,2.9-7.95,6.44-7.95,2.09,0,3.92,1.19,5.13,2.55v-8.47h1.39v17.69c0,1.86.12,2.99.46,3.77h-1.51c-.17-.55-.35-1.48-.35-2.29-1.3,1.36-2.9,2.55-5.19,2.55-3.51,0-6.38-2.52-6.38-7.86Zm11.57,3.92v-7.92c-1.71-1.74-3.25-2.73-5.22-2.73-2.67,0-4.96,2.03-4.96,6.7s2.35,6.67,5.02,6.67c2.06,0,3.45-.99,5.16-2.73Z" style="fill:#13232a;"/><path d="m597.68,51.71c0-4.9,2.93-7.95,6.7-7.95s6.7,3.05,6.7,7.95-2.96,7.92-6.7,7.92-6.7-3.08-6.7-7.92Zm12.01-.03c0-3.54-1.86-6.7-5.31-6.7s-5.31,2.9-5.31,6.7c0,3.57,1.83,6.73,5.31,6.73,3.28,0,5.31-2.87,5.31-6.73Z" style="fill:#13232a;"/><path d="m616.06,55.91v-10.59h-2.67v-1.25h2.67v-5.54h1.39v5.54h3.97v1.25h-3.97v10.38c0,1.62.55,2.55,2.46,2.55.58,0,1.16-.06,1.6-.2v1.3c-.49.09-1.07.15-1.71.15-2.52,0-3.74-1.02-3.74-3.6Z" style="fill:#13232a;"/><path d="m624.85,55.8c0-2.9,2.47-5.08,10.47-6.41v-.93c0-2.32-1.22-3.48-3.31-3.48-2.52,0-4.21.99-5.92,2.52l-.81-.87c1.89-1.74,3.83-2.87,6.76-2.87,3.16,0,4.67,1.8,4.67,4.61v7.17c0,1.86.12,2.99.43,3.77h-1.48c-.2-.64-.35-1.39-.35-2.26-1.86,1.6-3.89,2.52-6.18,2.52-2.78,0-4.29-1.45-4.29-3.77Zm10.47-.12v-5.25c-7.43,1.3-9.08,3.13-9.08,5.28,0,1.71,1.13,2.64,3.02,2.64,2.26,0,4.32-.99,6.06-2.67Z" style="fill:#13232a;"/><path d="m641.98,37.84h1.39v21.46h-1.39v-21.46Z" style="fill:#13232a;"/><path d="m655.32,54.12l2.15-.96c1.07,2.87,3.19,4.29,6.09,4.29s5.02-1.28,5.02-3.54c0-2.12-1.16-3.16-5.39-4.5-4.47-1.36-7.14-2.58-7.14-6.29,0-3.28,2.81-5.69,6.9-5.69s6.47,2.09,7.57,4.82l-2.03,1.13c-1.16-2.58-3.02-3.63-5.57-3.63-2.73,0-4.35,1.33-4.35,3.16,0,2.29,1.45,3.05,5.66,4.38,4.32,1.33,6.87,2.78,6.87,6.44s-3.1,5.98-7.66,5.98c-4.09,0-6.99-2.21-8.12-5.6Z" style="fill:#13232a;"/><path d="m674.61,55.68c0-3.1,2.64-5.31,10.24-6.38v-.7c0-1.92-1.01-2.84-2.9-2.84-2.32,0-4.03,1.01-5.54,2.32l-1.31-1.57c1.77-1.62,4.06-2.84,7.11-2.84,3.66,0,5.11,1.91,5.11,5.11v6.76c0,1.86.12,2.99.43,3.77h-2.55c-.2-.64-.35-1.25-.35-2.12-1.71,1.59-3.63,2.35-5.92,2.35-2.64,0-4.32-1.39-4.32-3.86Zm10.24-.35v-4.29c-5.83.93-7.77,2.35-7.77,4.26,0,1.48.99,2.26,2.58,2.26,2.03,0,3.77-.84,5.19-2.23Z" style="fill:#13232a;"/><path d="m692.04,43.99h2.52v2.29c1.33-1.3,3.25-2.61,5.74-2.61,2.93,0,4.53,1.68,4.53,4.58v11.05h-2.5v-10.5c0-2.03-.87-2.99-2.81-2.99-1.83,0-3.37.96-4.96,2.47v11.02h-2.52v-15.32Z" style="fill:#13232a;"/><path d="m717.82,37.84h7.28c4.64,0,7.75,1.83,7.75,6.09,0,4.58-3.42,6.29-7.92,6.29h-4.55v9.08h-2.55v-21.46Zm7.25,10.12c3.42,0,5.25-1.04,5.25-3.95s-1.8-3.86-5.28-3.86h-4.67v7.8h4.7Z" style="fill:#13232a;"/><path d="m736.66,43.99h2.49v15.32h-2.49v-15.32Zm3.25-6.24h3.05l-4.12,4.58h-1.65l2.73-4.58Z" style="fill:#13232a;"/><path d="m743.07,51.65c0-5.28,3.37-7.98,7.14-7.98s7.11,2.7,7.11,7.98-3.37,7.98-7.11,7.98-7.14-2.73-7.14-7.98Zm11.72,0c0-3.19-1.54-5.83-4.58-5.83s-4.61,2.38-4.61,5.83c0,3.25,1.51,5.86,4.61,5.86,2.9,0,4.58-2.35,4.58-5.86Z" style="fill:#13232a;"/><path d="m775.23,47.85l-6.47-10.01h2.93l5.08,7.98,4.99-7.98h2.7l-6.41,9.98,7.4,11.49h-2.79l-6.06-9.46-6.09,9.46h-2.64l7.37-11.46Z" style="fill:#13232a;"/></g></g></svg>